<?xml version="1.0" standalone="no"?>
<!DOCTYPE svg PUBLIC "-//W3C//DTD SVG 20010904//EN"
 "http://www.w3.org/TR/2001/REC-SVG-20010904/DTD/svg10.dtd">
<svg version="1.0" xmlns="http://www.w3.org/2000/svg"
 width="500.000000pt" height="500.000000pt" viewBox="0 0 500.000000 500.000000"
 preserveAspectRatio="xMidYMid meet">
<metadata>
Created by potrace 1.14, written by Peter Selinger 2001-2017
</metadata>
<g transform="translate(0.000000,500.000000) scale(0.100000,-0.100000)"
fill="#000000" stroke="none">
<path d="M2440 4365 c0 -6 -19 -10 -42 -11 -94 -1 -201 -16 -303 -40 -33 -8
-71 -17 -84 -20 -29 -6 -122 -37 -166 -55 -16 -7 -35 -13 -41 -14 -14 -3 -208
-99 -249 -123 -60 -34 -171 -111 -198 -136 -16 -14 -30 -26 -33 -26 -14 0
-195 -178 -250 -246 -21 -27 -45 -53 -52 -57 -7 -5 -10 -12 -7 -18 4 -5 3 -9
-2 -9 -4 0 -19 -17 -33 -38 -14 -20 -28 -41 -33 -47 -26 -34 -67 -102 -67
-111 0 -6 -7 -17 -15 -24 -8 -7 -13 -16 -10 -20 3 -5 2 -10 -2 -12 -8 -3 -40
-66 -66 -128 -8 -19 -20 -48 -27 -65 -35 -87 -79 -248 -95 -355 -12 -79 -18
-131 -21 -189 -2 -36 -4 -68 -4 -71 -9 -36 10 -296 27 -375 4 -16 7 -34 8 -40
7 -60 64 -252 96 -322 10 -24 19 -45 19 -49 0 -11 64 -139 72 -142 4 -2 8 -9
8 -16 0 -16 99 -176 129 -207 11 -12 21 -26 21 -30 0 -5 11 -19 25 -33 14 -14
25 -28 25 -31 0 -12 117 -134 191 -200 111 -97 139 -112 168 -87 17 14 21 31
23 89 2 40 7 73 11 73 4 0 3 8 -2 19 -6 10 -8 21 -5 24 17 17 22 583 6 614 -6
11 -9 23 -6 26 7 7 -56 147 -66 147 -4 0 -10 8 -14 18 -7 22 -28 55 -40 64
-13 9 -8 124 9 183 13 48 22 55 52 40 37 -20 71 -2 79 42 6 32 9 34 33 27 14
-4 34 -6 44 -6 9 0 24 -12 33 -29 8 -16 27 -35 42 -42 29 -13 69 -56 64 -70
-1 -5 2 -14 7 -21 19 -23 -1 -166 -30 -207 -10 -14 -16 -29 -12 -33 3 -3 2 -6
-4 -6 -9 0 -34 -54 -51 -111 -8 -29 -11 -609 -3 -609 3 0 7 -30 8 -68 1 -37 4
-92 7 -122 3 -30 9 -84 12 -120 9 -96 19 -106 149 -159 11 -5 31 -13 45 -19
14 -6 43 -16 65 -22 22 -6 47 -14 55 -17 28 -11 45 -15 68 -17 12 0 22 -4 22
-7 0 -6 34 -15 95 -26 11 -2 43 -8 70 -13 28 -6 81 -12 118 -15 38 -3 72 -7
76 -10 12 -7 44 20 48 41 13 64 30 295 37 504 1 25 5 51 9 58 5 6 5 12 0 12
-8 0 -7 134 1 157 3 7 1 15 -4 18 -5 3 -6 13 -3 22 3 9 7 37 7 62 l1 46 69 2
c83 2 97 -9 86 -68 -4 -22 -4 -39 1 -39 4 0 4 -12 0 -27 -5 -16 -5 -37 -1 -48
4 -11 5 -24 2 -29 -7 -13 -9 -56 -2 -56 3 0 5 -39 6 -88 2 -142 17 -398 30
-492 4 -32 39 -74 54 -65 3 2 33 7 65 10 33 4 64 9 68 12 5 3 18 6 30 8 36 5
137 34 225 65 45 16 82 25 82 22 0 -4 4 -2 8 3 10 15 108 60 123 57 17 -3 38
39 44 88 3 30 8 71 10 90 2 19 7 73 10 120 4 47 9 88 11 92 3 5 0 8 -6 8 -6 0
-8 5 -3 13 4 6 8 39 10 72 5 118 4 500 -1 523 -3 12 -8 30 -10 40 -9 39 -39
102 -49 102 -6 0 -8 3 -4 6 3 4 1 12 -6 20 -14 15 -19 22 -67 84 -19 25 -37
47 -40 50 -29 28 -89 151 -96 200 -6 46 -5 165 2 215 4 28 8 58 8 68 0 9 4 17
9 17 4 0 6 4 3 8 -2 4 9 39 25 77 16 38 29 75 29 82 0 7 4 13 8 13 5 0 17 18
27 40 10 22 21 37 26 35 4 -3 10 3 13 12 8 26 68 70 123 91 45 17 66 19 103 9
8 -2 29 -7 45 -12 45 -11 139 -113 180 -195 94 -186 112 -436 40 -564 -13 -23
-59 -89 -102 -147 -87 -116 -117 -172 -130 -245 -14 -75 -3 -684 13 -756 2
-10 6 -28 9 -39 6 -27 5 -27 38 -33 15 -2 27 -1 27 4 0 5 13 16 29 25 27 14
237 215 271 260 56 74 86 111 95 117 6 4 6 8 2 8 -5 0 -2 7 5 15 24 26 34 40
41 55 4 8 16 29 26 45 40 62 80 143 74 149 -4 3 -1 6 5 6 6 0 14 10 18 23 3
12 15 41 26 64 11 23 21 50 23 60 2 10 4 19 5 21 2 1 3 5 4 10 1 4 5 13 10 21
5 7 13 30 18 50 5 20 11 45 14 56 3 11 7 27 9 35 2 8 4 15 5 15 1 0 4 11 5 25
2 14 8 43 14 65 54 222 41 663 -26 845 -4 8 -8 23 -9 33 -8 38 -47 147 -86
237 -43 101 -156 300 -170 300 -4 0 -8 6 -8 13 0 13 -13 30 -100 135 -90 109
-155 170 -312 298 -10 7 -18 11 -18 9 0 -3 -10 4 -22 15 -23 22 -73 51 -84 50
-3 -1 -11 6 -17 14 -16 20 -282 151 -327 160 -3 1 -11 5 -17 9 -7 5 -17 5 -23
2 -5 -3 -10 -2 -10 3 0 6 -104 38 -195 59 -98 22 -184 33 -298 38 -49 2 -91 6
-94 9 -3 2 -15 1 -28 -4 -14 -5 -26 -5 -34 3 -6 6 -11 7 -11 2z m147 -1136
c17 -6 35 -18 39 -27 7 -17 16 -74 14 -99 0 -7 0 -19 -1 -25 0 -7 0 -22 1 -33
0 -11 1 -32 1 -47 -1 -16 0 -34 0 -40 0 -7 0 -26 0 -43 -1 -16 -1 -38 -1 -47
0 -10 0 -24 0 -30 -1 -7 1 -41 2 -76 2 -34 0 -62 -4 -62 -4 0 -3 -13 2 -30 5
-19 5 -30 -1 -30 -6 0 -5 -8 1 -20 8 -14 8 -20 0 -20 -6 0 -8 -5 -5 -11 11
-16 12 -69 2 -69 -4 0 -5 -5 -1 -11 7 -13 11 -119 4 -119 -7 0 -4 -69 3 -76 3
-3 2 -16 -3 -29 -5 -13 -6 -26 -3 -29 7 -7 10 -106 3 -106 -3 0 -4 -19 -3 -42
1 -24 2 -43 3 -43 1 0 2 -15 3 -33 1 -17 -2 -32 -6 -32 -4 0 -3 -9 3 -21 8
-14 8 -24 1 -33 -6 -7 -8 -16 -4 -19 5 -6 8 -107 3 -132 -1 -5 -1 -13 0 -17 4
-18 3 -75 -3 -99 -6 -25 -9 -26 -82 -26 l-75 1 -15 53 c-9 30 -24 67 -34 83
-22 37 -89 110 -100 110 -5 0 -11 9 -14 20 -3 11 -2 20 1 20 4 0 6 19 4 42 -7
99 -6 356 0 351 5 -2 4 7 -2 21 -5 15 -6 26 0 26 5 0 5 12 1 28 -6 22 -7 87
-1 87 1 0 3 43 5 95 4 106 15 241 20 250 2 3 6 25 10 49 3 24 10 54 15 67 5
13 8 24 5 24 -2 0 4 20 15 45 11 25 16 45 12 45 -4 0 -2 4 3 8 6 4 21 28 35
55 13 26 28 47 32 47 5 0 8 6 8 14 0 8 9 18 20 21 11 3 20 10 20 14 0 11 30
11 67 0z"/>
</g>
</svg>
